HIERARCHY
	ROOT Hips
	{
		OFFSET 0 0 0 
		CHANNELS 6 Xposition Yposition Zposition Zrotation Xrotation Yrotation
		JOINT LHipJoint
		{
			OFFSET 0 0 0 
			CHANNELS 3 Zrotation Xrotation Yrotation
			JOINT LeftUpLeg
			{
				OFFSET 0.0783705 -0.0912565 0.0336595 
				CHANNELS 3 Zrotation Xrotation Yrotation
				JOINT LeftLeg
				{
					OFFSET 0.117854 -0.323802 0 
					CHANNELS 3 Zrotation Xrotation Yrotation
					JOINT LeftFoot
					{
						OFFSET 0.135318 -0.371784 0 
						CHANNELS 3 Zrotation Xrotation Yrotation
						JOINT LeftToeBase
						{
							OFFSET 0.0102135 -0.028061 0.104268 
							CHANNELS 3 Zrotation Xrotation Yrotation
							End Site
							{
								OFFSET 0 -0 0.0542675
							}
						}
					}
				}
			}
		}
		JOINT RHipJoint
		{
			OFFSET 0 0 0 
			CHANNELS 3 Zrotation Xrotation Yrotation
			JOINT RightUpLeg
			{
				OFFSET -0.075711 -0.0912565 0.0336595 
				CHANNELS 3 Zrotation Xrotation Yrotation
				JOINT RightLeg
				{
					OFFSET -0.124412 -0.341819 0 
					CHANNELS 3 Zrotation Xrotation Yrotation
					JOINT RightFoot
					{
						OFFSET -0.135017 -0.370955 0 
						CHANNELS 3 Zrotation Xrotation Yrotation
						JOINT RightToeBase
						{
							OFFSET -0.009875 -0.0271315 0.111076 
							CHANNELS 3 Zrotation Xrotation Yrotation
							End Site
							{
								OFFSET -0 -0 0.0574575
							}
						}
					}
				}
			}
		}
		JOINT LowerBack
		{
			OFFSET 0 0 0 
			CHANNELS 3 Zrotation Xrotation Yrotation
			JOINT Spine
			{
				OFFSET -0.0007835 0.106437 -0.007921 
				CHANNELS 3 Zrotation Xrotation Yrotation
				JOINT Spine1
				{
					OFFSET 0.003049 0.106663 -0.0005215 
					CHANNELS 3 Zrotation Xrotation Yrotation
					JOINT Neck
					{
						OFFSET 0 0 0 
						CHANNELS 3 Zrotation Xrotation Yrotation
						JOINT Neck1
						{
							OFFSET -0.00252 0.089216 0.0066935 
							CHANNELS 3 Zrotation Xrotation Yrotation
							JOINT Head
							{
								OFFSET -9e-005 0.08844 -0.0166515 
								CHANNELS 3 Zrotation Xrotation Yrotation
								End Site
								{
									OFFSET 0.000367 0.0906245 -0.0063595
								}
							}
						}
					}
					JOINT LeftShoulder
					{
						OFFSET 0 0 0 
						CHANNELS 3 Zrotation Xrotation Yrotation
						JOINT LeftArm
						{
							OFFSET 0.1861 0.047094 -0.0271585 
							CHANNELS 3 Zrotation Xrotation Yrotation
							JOINT LeftForeArm
							{
								OFFSET 0.257301 -0 0 
								CHANNELS 3 Zrotation Xrotation Yrotation
								JOINT LeftHand
								{
									OFFSET 0.182226 -0 -0 
									CHANNELS 3 Zrotation Xrotation Yrotation
									JOINT LeftFingerBase
									{
										OFFSET 0 0 0 
										CHANNELS 3 Zrotation Xrotation Yrotation
										JOINT LFingers
										{
											OFFSET 0.028114 -0 0 
											CHANNELS 3 Zrotation Xrotation Yrotation
											End Site
											{
												OFFSET 0.022666 -0 0
											}
										}
									}
									JOINT LThumb
									{
										OFFSET 0 0 0 
										CHANNELS 3 Zrotation Xrotation Yrotation
										End Site
										{
											OFFSET 0.0230125 -0 0.0230125
										}
									}
								}
							}
						}
					}
					JOINT RightShoulder
					{
						OFFSET 0 0 0 
						CHANNELS 3 Zrotation Xrotation Yrotation
						JOINT RightArm
						{
							OFFSET -0.165127 0.0613395 -0.0234705 
							CHANNELS 3 Zrotation Xrotation Yrotation
							JOINT RightForeArm
							{
								OFFSET -0.266957 -0 0 
								CHANNELS 3 Zrotation Xrotation Yrotation
								JOINT RightHand
								{
									OFFSET -0.178239 -0 -0 
									CHANNELS 3 Zrotation Xrotation Yrotation
									JOINT RightFingerBase
									{
										OFFSET 0 0 0 
										CHANNELS 3 Zrotation Xrotation Yrotation
										JOINT RFingers
										{
											OFFSET -0.0428735 -0 0 
											CHANNELS 3 Zrotation Xrotation Yrotation
											End Site
											{
												OFFSET -0.034566 -0 0
											}
										}
									}
									JOINT RThumb
									{
										OFFSET 0 0 0 
										CHANNELS 3 Zrotation Xrotation Yrotation
										End Site
										{
											OFFSET -0.0350935 -0 0.0350935
										}
									}
								}
							}
						}
					}
				}
			}
		}
	}
MOTION
Frames:	7
Frame Time:	0.0166667
-0.481665 0.87137 -0.70824 1.58119 0.948883 -8.61149 -0 0 -0 -18.4119 -5.11932 -6.03536 -2.41637 26.2459 10.3382 2.33992 -18.893 4.80186 -0.97258 -17.1423 -6.44599 -0 0 -0 21.6563 -17.5825 4.98136 6.28287 39.4303 -17.4151 -1.04067 -21.0098 0.598061 0.746366 15.0876 -5.63111 -3.67482 4.66414 -1.62147 2.01496 0.527572 -2.3079 4.29971 -1.83805 -1.12208 -6.45312 -17.6557 -0.291847 0.0268267 22.1587 1.3903 1.40833 9.94038 0.108732 -0 0 -0 -74.4249 34.0518 1.67315 21.11 -7.46581 -38.5953 0 -0.1733 0 8.12232 4.21981 27.2752 -7.125 0 0 -16.4659 -3.40872 56.3743 -0 0 -0 79.2774 21.4894 -4.3441 -17.8708 -5.18117 32.108 -0 8.5261 -0 3.4251 0.580925 9.6141 7.125 0 -0 26.233 12.6146 -21.0977 
-0.485605 0.871675 -0.70672 1.21321 0.896243 -8.41704 -0 0 -0 -17.8596 -5.4964 -6.29144 -2.6317 27.2756 10.8164 2.33219 -18.8554 4.79835 -0.835683 -15.9356 -5.96522 -0 0 -0 22.2858 -17.1245 4.76364 6.15593 39.115 -17.2145 -1.13492 -21.0335 0.314773 0.651571 14.1256 -5.25543 -3.44607 5.07105 -1.55107 2.23038 0.276794 -2.20933 4.41753 -2.3348 -1.05708 -6.68722 -17.1257 -0.180399 -0.191462 22.0724 1.61963 1.4197 9.80486 0.17323 -0 0 -0 -75.4292 33.4439 2.52162 21.0819 -7.44356 -38.5372 -0 0.3572 -0 7.81796 4.02002 27.0486 -7.125 0 0 -16.8236 -3.39583 56.084 -0 0 -0 79.1886 21.8104 -5.16146 -17.9532 -5.23291 32.2687 -0 8.2846 -0 3.95542 0.655587 9.39542 7.125 0 -0 26.7375 12.7651 -21.3175 
-0.489355 0.87081 -0.70496 0.895474 0.741837 -8.41001 -0 0 -0 -17.4172 -5.76163 -6.36278 -2.90117 28.4894 11.3927 2.21401 -17.418 5.34432 -0.749069 -15.1144 -5.64156 -0 0 -0 22.7969 -16.6964 4.52076 6.07312 38.9066 -17.083 -1.06669 -21.321 0.621863 0.794128 15.5478 -5.81197 -3.20899 5.30797 -1.4224 2.34983 0.187383 -2.02661 4.40772 -2.58274 -0.960376 -6.92554 -16.7568 -0.117384 -0.245297 22.0816 1.75518 1.46947 9.73424 0.210734 -0 0 -0 -76.2722 32.8175 3.29111 21.0608 -7.42698 -38.4936 -0 0.5911 -0 7.5967 3.93131 27.2058 -7.125 0 0 -17.0406 -3.47579 56.1889 -0 0 -0 79.1389 21.8793 -5.72036 -17.9389 -5.22383 32.2406 -0 8.3502 -0 4.21257 0.712038 9.57665 7.125 0 -0 26.9265 12.9698 -21.1602 
-0.493355 0.8709 -0.70385 0.395109 0.534779 -7.97395 -0 0 -0 -16.7039 -6.40426 -6.44901 -3.2498 29.9521 12.1067 2.13477 -17.254 5.13852 -0.885993 -16.3907 -6.14577 -0 0 -0 23.5757 -15.9827 4.26172 5.8756 38.3997 -16.7668 -1.25967 -20.7113 -0.191902 0.586545 13.4201 -4.98207 -2.46449 5.6303 -1.23426 2.14273 0.54005 -1.74228 3.74528 -2.45634 -0.835668 -6.494 -17.4519 -0.169398 -0.248562 22.2274 1.62952 1.37343 9.92205 0.183241 -0 0 -0 -75.4418 32.5814 2.49528 20.9857 -7.36793 -38.3387 -0 0.3671 -0 6.70396 3.62157 28.253 -7.125 0 0 -17.8649 -3.93124 57.0083 -0 0 -0 79.5049 21.0749 -5.38592 -17.9195 -5.21164 32.2029 -0 8.3824 -0 4.66334 0.808206 9.81099 7.125 0 -0 27.2724 13.2939 -20.9612 
-0.497425 0.87265 -0.70172 0.155191 0.176739 -7.82564 -0 0 -0 -16.2812 -7.1136 -6.60245 -3.67093 31.582 12.9298 2.19884 -17.2233 5.42641 -0.92415 -16.7274 -6.27994 -0 0 -0 23.9442 -14.9638 3.75418 5.53421 37.4902 -16.2116 -1.2988 -20.4368 -0.420999 0.602405 13.5963 -5.05018 -2.25063 5.66942 -1.01486 2.0989 0.88722 -1.43997 3.54371 -2.15224 -0.697392 -6.42529 -17.4663 -0.219521 -0.325689 22.0151 1.55706 1.31582 9.85317 0.153565 -0 0 -0 -75.346 32.2189 2.20673 20.9378 -7.33034 -38.2398 -0 0.3931 -0 6.71147 3.51748 27.5362 -7.125 0 0 -17.951 -3.71599 56.3128 -0 0 -0 79.4042 20.3548 -5.09139 -17.7617 -5.11331 31.8959 -0 8.5941 -0 5.00334 0.907759 10.2574 7.125 0 -0 27.4776 13.6685 -20.5644 
-0.501295 0.8738 -0.699905 0.190874 0.103891 -7.55221 -0 0 -0 -16.069 -8.11229 -6.40102 -4.11177 33.1522 13.7533 1.81883 -16.378 4.42645 -1.12589 -18.3859 -6.94851 -0 0 -0 24.0585 -14.6156 3.19303 5.34314 36.9613 -15.8957 -1.42544 -20.3222 -0.876246 0.46573 11.9887 -4.43277 -2.33912 5.81103 -0.993305 2.12514 0.813651 -1.41764 3.62547 -2.30614 -0.681652 -6.45381 -17.4846 -0.0549383 -0.59462 22.2298 1.86852 1.29972 9.9263 0.257454 -0 0 -0 -76.0671 31.2732 2.72123 20.8914 -7.29424 -38.1445 -0 0.5883 -0 5.99625 3.37208 29.2483 -7.125 0 0 -18.4999 -4.36227 57.8073 -0 0 -0 79.1239 20.5746 -5.15876 -17.6645 -5.05322 31.7072 -0 8.6998 -0 5.09594 0.865666 9.61591 7.125 0 -0 27.6869 13.4106 -21.1544 
-0.50468 0.87348 -0.698345 0.260179 0.105178 -7.14181 -0 0 -0 -15.8629 -9.15824 -6.15303 -4.64071 34.8815 14.6986 1.5621 -16.5364 3.2341 -1.3649 -20.1444 -7.67273 -0 0 -0 24.0831 -14.4377 2.67101 5.2019 36.5609 -15.6597 -1.45089 -20.2591 -0.985257 0.523882 12.7 -4.70496 -2.29883 5.87854 -0.796388 1.99118 0.732351 -1.15639 3.44584 -2.45279 -0.548202 -6.41419 -17.432 -0.0259938 -0.490578 22.5506 1.8789 1.33739 10.0291 0.268808 -0 0 -0 -75.996 31.3602 2.64573 20.6827 -7.13279 -37.7159 -0 0.7698 -0 5.83492 3.29796 29.3769 -7.125 0 0 -18.6586 -4.43295 57.8926 -0 0 -0 79.2364 20.2266 -5.70551 -17.7961 -5.13463 31.9627 -0 8.5791 -0 5.40886 0.911814 9.54032 7.125 0 -0 27.9736 13.5255 -21.2337 
